<svg width="184" height="43" viewBox="0 0 184 43" fill="none" xmlns="http://www.w3.org/2000/svg">
<g clip-path="url(#clip0)">
<path d="M73.34 15.8844C73.34 15.8844 73.34 17.2799 73.34 17.9445C73.5346 17.5457 74.7679 15.4189 77.299 15.4189H78.0779V18.9413H77.299C75.0276 18.9413 73.7295 20.6693 73.7295 22.7961V30.7046H69.6406V15.884H73.34V15.8844Z" fill="#D7001E"/>
<path d="M115.657 23.1277C115.657 20.8684 113.839 19.0737 111.568 19.0737C109.361 19.0737 107.544 20.8017 107.544 22.9948C107.479 25.2542 109.231 27.1821 111.568 27.1821H115.657V23.1277ZM115.981 17.6782V15.8839H119.681V36.0215H115.592V30.7711H111.373C107.09 30.7711 103.715 27.3154 103.715 23.0618C103.715 18.6753 107.219 15.3525 111.114 15.3525C114.359 15.3522 115.981 17.6782 115.981 17.6782Z" fill="#D7001E"/>
<path d="M65.5521 15.8844V30.7712H61.4629V15.8844H65.5521ZM65.5521 10.3682V13.9571H61.4629V10.3682H65.5521Z" fill="#D7001E"/>
<path d="M50.2349 13.9562C47.6387 13.9562 45.497 16.0163 45.497 18.5419V20.6687H52.8311V13.9562H50.2349ZM52.8958 30.7706V23.9918H45.5618V30.704H41.4082V18.874C41.4082 14.1554 45.3672 10.3672 50.2349 10.3672H56.9847V30.704H52.8958V30.7706Z" fill="#D7001E"/>
<path d="M100.86 10.3682V13.9571H96.7705V10.3682H100.86ZM100.86 15.8844V30.7712H96.7705V15.8844H100.86Z" fill="#D7001E"/>
<path d="M146.031 10.3682V13.9571H141.942V10.3682H146.031ZM146.031 15.8844V30.7712H141.942V15.8844H146.031Z" fill="#D7001E"/>
<path d="M123.315 15.8838H127.405V24.1911C127.405 26.4508 129.027 27.6471 130.65 27.6471C132.208 27.6471 133.96 26.5837 133.96 24.1911V15.8838H138.049V30.7707H134.285V28.9764L134.219 29.0426C133.052 30.4389 131.364 31.2357 129.417 31.2357C126.301 31.2357 123.316 28.5772 123.316 24.789L123.315 15.8838Z" fill="#D7001E"/>
<path d="M88.7226 10.3682V27.1826H94.0445V30.7712H84.6338V10.3682H88.7226Z" fill="#D7001E"/>
<path d="M160.83 23.5274C160.83 25.7867 159.012 27.5814 156.741 27.5814C154.534 27.5814 152.782 25.8534 152.717 23.6599C152.652 21.4006 154.404 19.473 156.741 19.473H160.83V23.5274ZM161.219 28.9107V30.705H164.918V10.3682H160.829V15.8181H156.611C152.327 15.8181 148.952 19.2742 148.952 23.5274C148.952 27.9139 152.457 31.2367 156.351 31.2367C159.531 31.2363 161.219 28.9107 161.219 28.9107Z" fill="#D7001E"/>
<path d="M171.733 21.9323H180.041C179.457 20.0713 178.094 18.8087 176.017 18.8087C173.94 18.8087 172.382 20.1376 171.733 21.9323ZM176.082 31.2363C171.538 31.2363 167.839 27.7143 167.839 23.3278C167.839 18.9413 171.538 15.4189 176.082 15.4189C180.625 15.4189 184 18.9413 184 23.3278C184 23.7262 184 24.1916 183.935 24.6571H171.733C172.317 26.518 173.94 27.8473 176.017 27.8473C177.963 27.8473 179.132 27.2489 180.105 26.053L183.026 27.9798C181.469 29.9737 179.067 31.2363 176.082 31.2363Z" fill="#D7001E"/>
<path d="M17.5887 0H0V18.0108C0 27.9798 7.85332 36.0216 17.5887 36.0216C27.3241 36.0216 35.1774 27.9795 35.1774 18.0108C35.1774 8.10806 27.3241 0 17.5887 0ZM30.0501 30.7709H17.5887C10.7091 30.7709 5.12731 25.0555 5.12731 18.0104C5.12731 10.9658 10.7088 5.24998 17.5887 5.24998C24.4686 5.24998 30.0501 10.9658 30.0501 18.0104V30.7709ZM17.5887 10.3678C21.6775 10.3678 25.0526 13.7572 25.0526 18.0108V25.5876H17.5887C13.4999 25.5876 10.1248 22.1978 10.1248 17.9442C10.1248 13.8235 13.4999 10.3678 17.5887 10.3678Z" fill="#375F9B"/>
</g>
<defs>
<clipPath id="clip0">
<rect width="184" height="43" fill="white"/>
</clipPath>
</defs>
</svg>
